<svg width="25" height="24" viewBox="0 0 25 24" fill="none" xmlns="http://www.w3.org/2000/svg">
<path d="M22.9555 2.18381C21.6624 0.793911 19.8505 0.00307726 17.9521 0.000145537C16.0522 0.00234433 14.2383 0.792759 12.9432 2.18292L12.5018 2.64933L12.0605 2.18292C9.49063 -0.582902 5.16518 -0.741739 2.39941 1.82808C2.27685 1.942 2.15849 2.06031 2.04457 2.18292C-0.681522 5.12334 -0.681522 9.66762 2.04457 12.608L11.8532 22.9519C12.1925 23.3101 12.758 23.3254 13.1163 22.9861C13.128 22.975 13.1394 22.9636 13.1505 22.9519L22.9556 12.608C25.6815 9.66794 25.6815 5.12392 22.9555 2.18381ZM21.6627 11.3777H21.6618L12.5018 21.0389L3.34102 11.3777C1.25844 9.13096 1.25844 5.65911 3.34102 3.41236C5.23225 1.36256 8.42715 1.23404 10.477 3.12526C10.5765 3.21709 10.6722 3.31284 10.7641 3.41236L11.8532 4.56139C12.2121 4.91802 12.7916 4.91802 13.1505 4.56139L14.2397 3.41325C16.1309 1.36345 19.3258 1.23493 21.3756 3.12615C21.4751 3.21798 21.5709 3.31373 21.6627 3.41325C23.7634 5.66356 23.7788 9.14175 21.6627 11.3777Z" fill="black"/>
</svg>
