<svg width="30" height="30" viewBox="0 0 30 30" fill="none" xmlns="http://www.w3.org/2000/svg">
<path fill-rule="evenodd" clip-rule="evenodd" d="M11.2449 2.5C12.1852 1.70372 13.5489 1.25 15 1.25C16.4511 1.25 17.8147 1.70372 18.7551 2.5H20C21.3807 2.5 22.5 3.61929 22.5 5H23.75C25.1307 5 26.25 6.11929 26.25 7.5V26.25C26.25 27.6307 25.1307 28.75 23.75 28.75H6.25C4.86929 28.75 3.75 27.6307 3.75 26.25V7.5C3.75 6.11929 4.86929 5 6.25 5H7.5C7.5 3.61929 8.61929 2.5 10 2.5H11.2449ZM20 8.75C20.9254 8.75 21.7333 8.24725 22.1655 7.5H23.75V26.25H6.25V7.5H7.83446C8.26672 8.24725 9.07465 8.75 10 8.75H20ZM10 20V17.5H17.5V20H10ZM10 12.5V15H20V12.5H10ZM12.322 5L12.6958 4.56922C13.1065 4.09593 13.9868 3.75 15 3.75C16.0132 3.75 16.8935 4.09593 17.3042 4.56922L17.678 5H20V6.25H10V5H11.7517H12.322Z" fill="#19110B"/>
</svg>
