<svg width="16" height="16" viewBox="0 0 16 16" fill="none" xmlns="http://www.w3.org/2000/svg">
<path fill-rule="evenodd" clip-rule="evenodd" d="M10.2761 0.666992H3.33333C2.59695 0.666992 2 1.26395 2 2.00033V14.0003C2 14.7367 2.59695 15.3337 3.33333 15.3337H12.6667C13.403 15.3337 14 14.7367 14 14.0003V4.39085L10.2761 0.666992ZM3.33333 2.00033H8.66667V4.66699C8.66667 5.40337 9.26362 6.00033 10 6.00033H12.6667V14.0003H3.33333V2.00033ZM10 4.66699V2.27647L12.3905 4.66699H10ZM7.33333 6.66699V9.72418L6.4714 8.86225L5.52859 9.80506L8 12.2765L10.4714 9.80506L9.52859 8.86225L8.66666 9.72418V6.66699H7.33333Z" fill="#19110B"/>
</svg>
