<svg width="15" height="15" viewBox="0 0 15 15" fill="none" xmlns="http://www.w3.org/2000/svg">
<path d="M2.61539 0H1.7484V10.6055H0.881409V13.2422H1.7484V15H2.61539V13.2422H3.48238V10.6055H2.61539V0ZM2.61539 12.3633H1.7484V11.4844H2.61539V12.3633Z" fill="#979797"/>
<path d="M13.9151 10.6055H13.0481V0H12.1811V10.6055H11.3141V13.2422H12.1811V15H13.0481V13.2422H13.9151V10.6055ZM13.0481 12.3633H12.1811V11.4844H13.0481V12.3633Z" fill="#979797"/>
<path d="M9.58017 0H8.71318V6.50391H7.84619V9.14062H8.71318V15H9.58017V9.14062H10.4472V6.50391H9.58017V0ZM9.58017 8.26172H8.71318V7.38281H9.58017V8.26172Z" fill="#979797"/>
<path d="M6.08334 0H5.21635V1.57184H4.34937V4.20855H5.21635V15H6.08334V4.20855H6.95033V1.57184H6.08334V0ZM6.08334 3.32965H5.21635V2.45074H6.08334V3.32965Z" fill="#979797"/>
</svg>
