<svg width="48" height="48" viewBox="0 0 48 48" fill="none" xmlns="http://www.w3.org/2000/svg">
<path fill-rule="evenodd" clip-rule="evenodd" d="M25.1566 14.2802L33.2077 18.7531C34.2641 19.34 34.2641 20.66 33.2077 21.2469L31.8521 22L33.2077 22.7531C34.2641 23.34 34.2641 24.66 33.2077 25.2469L31.8521 26L33.2077 26.7531C34.2641 27.34 34.2641 28.66 33.2077 29.2469L25.1566 33.7198C24.484 34.0934 23.516 34.0934 22.8434 33.7198L14.7923 29.2469C13.7359 28.66 13.7359 27.34 14.7923 26.7531L16.1479 26L14.7923 25.2469C13.7359 24.66 13.7359 23.34 14.7923 22.7531L16.1479 22L14.7923 21.2469C13.7359 20.66 13.7359 19.34 14.7923 18.7531L22.8434 14.2802C23.516 13.9066 24.484 13.9066 25.1566 14.2802ZM25.1566 25.7198L29.793 23.144L31.3339 24L29.793 24.856L27.7339 26L24.1853 27.9714C24.1168 28.0095 23.8832 28.0095 23.8147 27.9714L20.2661 26L18.207 24.856L16.6661 24L18.207 23.144L22.8434 25.7198C23.516 26.0934 24.484 26.0934 25.1566 25.7198ZM18.207 27.144L16.6661 28L23.8147 31.9714C23.8832 32.0095 24.1168 32.0095 24.1853 31.9714L31.3339 28L29.793 27.144L25.1566 29.7198C24.484 30.0934 23.516 30.0934 22.8434 29.7198L18.207 27.144ZM23.8147 16.0286C23.8832 15.9905 24.1168 15.9905 24.1853 16.0286L31.3339 20L24.1853 23.9714C24.1168 24.0095 23.8832 24.0095 23.8147 23.9714L16.6661 20L23.8147 16.0286Z" fill="#767676"/>
</svg>
