<svg width="16" height="15" viewBox="0 0 16 15" fill="none" xmlns="http://www.w3.org/2000/svg">
<g clip-path="url(#clip0)">
<path d="M7.99482 2.7334C7.58962 2.7334 7.19962 2.85697 6.86701 3.09076C6.7687 3.15987 6.74384 3.2973 6.8115 3.39773C6.87918 3.49816 7.01374 3.52354 7.11205 3.45445C7.37227 3.27155 7.67751 3.17487 7.99482 3.17487C8.85471 3.17487 9.55425 3.88937 9.55425 4.7676C9.55425 5.64583 8.85471 6.36035 7.99482 6.36035C7.13494 6.36035 6.4354 5.64583 6.4354 4.7676C6.4354 4.50853 6.4943 4.26155 6.61044 4.03356C6.66553 3.9254 6.62437 3.79213 6.51848 3.73588C6.41257 3.67966 6.28214 3.72164 6.22703 3.8298C6.0806 4.11727 6.00317 4.44155 6.00317 4.7676C6.0032 5.88929 6.89664 6.80183 7.99482 6.80183C9.09301 6.80183 9.98645 5.88929 9.98645 4.7676C9.98645 3.64594 9.09301 2.7334 7.99482 2.7334Z" fill="#979797"/>
<path d="M15.377 14.6945L13.2441 9.46014C13.2106 9.37784 13.1319 9.32423 13.0446 9.32423H10.9192C11.3326 8.753 11.6767 8.18402 11.9454 7.62536C12.4217 6.6353 12.6631 5.67381 12.6631 4.76754C12.6631 2.1387 10.5692 0 7.99533 0C5.4215 0 3.32755 2.1387 3.32755 4.76751C3.32755 5.67378 3.56901 6.6353 4.04527 7.62533C4.31398 8.18399 4.65809 8.753 5.07153 9.3242H2.94605C2.85877 9.3242 2.78005 9.37784 2.74655 9.46011L1.29314 13.0269C1.24727 13.1394 1.29941 13.2686 1.4096 13.3155C1.43677 13.327 1.46486 13.3325 1.49254 13.3325C1.57722 13.3325 1.65759 13.2813 1.69212 13.1965L1.89951 12.6876H3.37067L2.6083 14.5585H1.13716L1.35816 14.0162C1.40402 13.9036 1.35189 13.7744 1.24169 13.7276C1.13144 13.6807 1.00498 13.734 0.959143 13.8465L0.613648 14.6945C0.585876 14.7626 0.593274 14.8404 0.633387 14.9017C0.673441 14.9631 0.740893 15 0.813142 15H15.1775C15.2497 15 15.3172 14.9631 15.3573 14.9017C15.3974 14.8404 15.4048 14.7626 15.377 14.6945ZM3.75977 4.76751C3.75977 2.3821 5.65984 0.441445 7.99533 0.441445C10.3308 0.441445 12.2309 2.38213 12.2309 4.76751C12.2309 5.76779 11.8906 7.36623 10.3164 9.40318C10.3148 9.40509 10.3134 9.40711 10.3119 9.40907C10.2315 9.51299 10.148 9.61802 10.061 9.72422C9.19602 10.7807 8.32065 11.5522 7.9953 11.8263C7.6709 11.5531 6.79966 10.7855 5.93525 9.73105C5.84612 9.62232 5.76064 9.51483 5.67836 9.40849C5.67703 9.40679 5.67579 9.40503 5.6744 9.40336C4.1003 7.36655 3.75977 5.76817 3.75977 4.76751ZM3.09017 9.76567H4.56136L4.02475 11.0825H2.55359L3.09017 9.76567ZM4.35389 14.5586L5.70469 11.2437L9.54874 14.5586H4.35389ZM10.2187 14.5586L5.75801 10.7119C5.70535 10.6664 5.63461 10.6494 5.56773 10.666C5.5008 10.6825 5.44555 10.7307 5.4191 10.7957L3.88578 14.5585H3.07647L3.89421 12.5516C3.92199 12.4835 3.91459 12.4057 3.87448 12.3444C3.83442 12.283 3.76694 12.2461 3.69469 12.2461H2.07946L2.37372 11.5239H4.16891C4.25618 11.5239 4.3349 11.4703 4.3684 11.388L5.02951 9.76565H5.40457C5.46968 9.84856 5.53586 9.93149 5.6038 10.0144C6.71889 11.3747 7.81687 12.248 7.86308 12.2845C7.90204 12.3153 7.94868 12.3306 7.99533 12.3306C8.04197 12.3306 8.08864 12.3153 8.12757 12.2845C8.15297 12.2644 8.49624 11.9913 8.98511 11.524H11.4324C11.5517 11.524 11.6485 11.4251 11.6485 11.3032C11.6485 11.1813 11.5517 11.0825 11.4324 11.0825H9.43051C9.73014 10.7748 10.0576 10.416 10.3869 10.0144C10.4548 9.93152 10.521 9.84861 10.5861 9.76567H12.9005L13.4371 11.0825H12.2968C12.1774 11.0825 12.0807 11.1813 12.0807 11.3032C12.0807 11.4251 12.1774 11.524 12.2968 11.524H13.6169L13.9112 12.2461H9.45863C9.36843 12.2461 9.28775 12.3033 9.25616 12.3896C9.22463 12.4759 9.24885 12.5732 9.31696 12.6335L11.4883 14.5586H10.2187ZM12.1477 14.5586L10.0373 12.6876H14.0911L14.8535 14.5586H12.1477Z" fill="#979797"/>
</g>
<defs>
<clipPath id="clip0">
<rect width="14.7966" height="15" fill="white" transform="translate(0.596558)"/>
</clipPath>
</defs>
</svg>
