<svg width="20" height="20" viewBox="0 0 20 20" fill="none" xmlns="http://www.w3.org/2000/svg">
<mask id="path-1-inside-1" fill="white">
<path d="M12.309 5.78467C12.3089 5.32802 12.1734 4.88165 11.9197 4.50199C11.666 4.12234 11.3053 3.82645 10.8834 3.65174C10.4615 3.47703 9.99729 3.43135 9.54943 3.52048C9.10157 3.6096 8.69019 3.82953 8.36732 4.15245C8.04444 4.47537 7.82457 4.88677 7.73551 5.33465C7.64644 5.78252 7.69218 6.24675 7.86695 6.66863C8.04171 7.09051 8.33765 7.45109 8.71734 7.70479C9.09703 7.95848 9.54342 8.09388 10.0001 8.09388C10.6123 8.09314 11.1991 7.8496 11.632 7.41669C12.0648 6.98378 12.3083 6.39685 12.309 5.78467ZM8.23804 5.78467C8.2381 5.43618 8.34149 5.09554 8.53514 4.80582C8.7288 4.5161 9.00401 4.2903 9.32598 4.15699C9.64796 4.02367 10.0022 3.98882 10.344 4.05684C10.6858 4.12487 10.9997 4.29271 11.2461 4.53915C11.4925 4.78558 11.6603 5.09955 11.7283 5.44134C11.7962 5.78313 11.7613 6.1374 11.6279 6.45935C11.4946 6.7813 11.2687 7.05648 10.979 7.25008C10.6892 7.44368 10.3486 7.54701 10.0001 7.54701C9.53286 7.54647 9.08494 7.36061 8.75461 7.03022C8.42427 6.69982 8.23849 6.25188 8.23804 5.78467Z"/>
</mask>
<path d="M12.309 5.78467C12.3089 5.32802 12.1734 4.88165 11.9197 4.50199C11.666 4.12234 11.3053 3.82645 10.8834 3.65174C10.4615 3.47703 9.99729 3.43135 9.54943 3.52048C9.10157 3.6096 8.69019 3.82953 8.36732 4.15245C8.04444 4.47537 7.82457 4.88677 7.73551 5.33465C7.64644 5.78252 7.69218 6.24675 7.86695 6.66863C8.04171 7.09051 8.33765 7.45109 8.71734 7.70479C9.09703 7.95848 9.54342 8.09388 10.0001 8.09388C10.6123 8.09314 11.1991 7.8496 11.632 7.41669C12.0648 6.98378 12.3083 6.39685 12.309 5.78467ZM8.23804 5.78467C8.2381 5.43618 8.34149 5.09554 8.53514 4.80582C8.7288 4.5161 9.00401 4.2903 9.32598 4.15699C9.64796 4.02367 10.0022 3.98882 10.344 4.05684C10.6858 4.12487 10.9997 4.29271 11.2461 4.53915C11.4925 4.78558 11.6603 5.09955 11.7283 5.44134C11.7962 5.78313 11.7613 6.1374 11.6279 6.45935C11.4946 6.7813 11.2687 7.05648 10.979 7.25008C10.6892 7.44368 10.3486 7.54701 10.0001 7.54701C9.53286 7.54647 9.08494 7.36061 8.75461 7.03022C8.42427 6.69982 8.23849 6.25188 8.23804 5.78467Z" fill="#19110B"/>
<path d="M10.0001 8.09388L10.0001 9.09389L10.0013 9.09388L10.0001 8.09388ZM10.0001 7.54701L9.99892 8.54701H10.0001V7.54701ZM13.309 5.78453C13.3089 5.13011 13.1147 4.49041 12.7511 3.94633L11.0883 5.05766C11.2321 5.27289 11.3089 5.52593 11.309 5.7848L13.309 5.78453ZM12.7511 3.94633C12.3875 3.40224 11.8707 2.9782 11.266 2.72782L10.5008 4.57566C10.74 4.6747 10.9444 4.84244 11.0883 5.05766L12.7511 3.94633ZM11.266 2.72782C10.6614 2.47745 9.99609 2.41198 9.35426 2.53971L9.7446 4.50125C9.99849 4.45072 10.2617 4.47662 10.5008 4.57566L11.266 2.72782ZM9.35426 2.53971C8.71242 2.66743 8.12287 2.98261 7.66016 3.44539L9.07447 4.85951C9.25751 4.67645 9.49071 4.55177 9.7446 4.50125L9.35426 2.53971ZM7.66016 3.44539C7.19745 3.90817 6.88235 4.49776 6.75471 5.13961L8.7163 5.52969C8.76679 5.27579 8.89143 5.04257 9.07447 4.85951L7.66016 3.44539ZM6.75471 5.13961C6.62707 5.78146 6.69262 6.44675 6.94308 7.05135L8.79081 6.28592C8.69174 6.04676 8.66581 5.78359 8.7163 5.52969L6.75471 5.13961ZM6.94308 7.05135C7.19354 7.65594 7.61765 8.1727 8.16179 8.53626L9.2729 6.87331C9.05765 6.72949 8.88989 6.52508 8.79081 6.28592L6.94308 7.05135ZM8.16179 8.53626C8.70592 8.89983 9.34565 9.09388 10.0001 9.09388L10.0001 7.09388C9.7412 7.09388 9.48814 7.01712 9.2729 6.87331L8.16179 8.53626ZM10.0013 9.09388C10.8783 9.09282 11.7191 8.74393 12.3392 8.12375L10.9248 6.70963C10.6792 6.95527 10.3462 7.09346 9.99885 7.09389L10.0013 9.09388ZM12.3392 8.12375C12.9592 7.50357 13.308 6.66275 13.309 5.78575L11.309 5.78359C11.3086 6.13095 11.1705 6.46399 10.9248 6.70963L12.3392 8.12375ZM9.23804 5.78484C9.23806 5.63414 9.28278 5.48682 9.36653 5.36152L7.70376 4.25012C7.40021 4.70427 7.23813 5.23823 7.23804 5.78449L9.23804 5.78484ZM9.36653 5.36152C9.45028 5.23622 9.5693 5.13857 9.70854 5.08092L8.94342 3.23306C8.43872 3.44203 8.00732 3.79597 7.70376 4.25012L9.36653 5.36152ZM9.70854 5.08092C9.84779 5.02326 10.001 5.00819 10.1488 5.03761L10.5392 3.07608C10.0035 2.96945 9.44813 3.02408 8.94342 3.23306L9.70854 5.08092ZM10.1488 5.03761C10.2966 5.06703 10.4324 5.13961 10.539 5.24619L11.9533 3.8321C11.5671 3.44581 11.075 3.18271 10.5392 3.07608L10.1488 5.03761ZM10.539 5.24619C10.6455 5.35277 10.7181 5.48855 10.7475 5.63637L12.7091 5.24632C12.6025 4.71055 12.3395 4.2184 11.9533 3.8321L10.539 5.24619ZM10.7475 5.63637C10.7769 5.78418 10.7618 5.93739 10.7041 6.07663L12.5518 6.84208C12.7609 6.33741 12.8156 5.78208 12.7091 5.24632L10.7475 5.63637ZM10.7041 6.07663C10.6464 6.21586 10.5487 6.33487 10.4234 6.41859L11.5345 8.08156C11.9887 7.77808 12.3427 7.34674 12.5518 6.84208L10.7041 6.07663ZM10.4234 6.41859C10.2981 6.50232 10.1508 6.54701 10.0001 6.54701L10.0001 8.54701C10.5463 8.54701 11.0803 8.38503 11.5345 8.08156L10.4234 6.41859ZM10.0012 6.54701C9.79886 6.54678 9.60486 6.46628 9.46178 6.32317L8.04744 7.73726C8.56503 8.25495 9.26686 8.54617 9.99892 8.54701L10.0012 6.54701ZM9.46178 6.32317C9.3187 6.18007 9.23823 5.98605 9.23804 5.78369L7.23804 5.78564C7.23875 6.5177 7.52984 7.21957 8.04744 7.73726L9.46178 6.32317Z" fill="black" mask="url(#path-1-inside-1)"/>
<mask id="path-3-inside-2" fill="white">
<path d="M19.27 18.917L17.041 13.0733C17.0212 13.0215 16.9862 12.977 16.9406 12.9456C16.895 12.9142 16.8409 12.8973 16.7855 12.8973H12.5667C12.5925 12.8553 12.6182 12.8145 12.6439 12.7723C14.2672 10.0848 15.0841 7.73389 15.0724 5.78576C15.0726 4.44045 14.5384 3.15015 13.5873 2.19871C12.6362 1.24727 11.346 0.71263 10.0007 0.712402C8.65542 0.712174 7.36512 1.24638 6.41368 2.1975C5.46224 3.14861 4.9276 4.43873 4.92737 5.78404C4.91565 7.73389 5.73253 10.0851 7.35581 12.7723C7.38159 12.815 7.40722 12.8558 7.433 12.8973H3.21425C3.15886 12.8973 3.10479 12.9142 3.05917 12.9456C3.01356 12.977 2.97855 13.0215 2.95878 13.0733L0.73003 18.917C0.714149 18.9584 0.708588 19.0031 0.713827 19.0471C0.719066 19.0911 0.734948 19.1332 0.7601 19.1697C0.785252 19.2063 0.818918 19.2361 0.858189 19.2567C0.89746 19.2773 0.941155 19.288 0.985498 19.2879H19.0146C19.0589 19.288 19.1026 19.2773 19.1419 19.2567C19.1811 19.2361 19.2148 19.2063 19.24 19.1697C19.2651 19.1332 19.281 19.0911 19.2862 19.0471C19.2915 19.0031 19.2859 18.9584 19.27 18.917ZM5.4744 5.78451C5.47451 5.1902 5.59167 4.60172 5.8192 4.05269C6.04673 3.50365 6.38017 3.00481 6.80048 2.58464C7.2208 2.16447 7.71976 1.8312 8.26887 1.60386C8.81798 1.37652 9.4065 1.25957 10.0008 1.25967C10.5951 1.25977 11.1836 1.37693 11.7326 1.60446C12.2817 1.83199 12.7805 2.16543 13.2007 2.58574C13.6209 3.00606 13.9541 3.50502 14.1815 4.05413C14.4088 4.60325 14.5258 5.19176 14.5257 5.78607C14.5491 9.67014 10.9178 14.4606 10 15.6094C9.08222 14.4611 5.45081 9.67185 5.4744 5.78451ZM9.79175 16.2187C9.81742 16.2489 9.84934 16.2731 9.8853 16.2898C9.92126 16.3064 9.96041 16.315 10 16.315C10.0396 16.315 10.0788 16.3064 10.1148 16.2898C10.1507 16.2731 10.1826 16.2489 10.2083 16.2187C10.9343 15.3343 11.6074 14.4078 12.2239 13.4439H16.5969L16.9469 14.3619L8.40144 17.4011L5.3555 13.4434H7.77581C8.39248 14.4075 9.06563 15.3342 9.79175 16.2187ZM8.3919 17.9844H8.39347L13.4914 16.1719L15.4688 18.7411H6.26565L8.3919 17.9844ZM3.40284 13.4434H4.66534L7.8594 17.5937L4.63394 18.7409H1.38237L3.40284 13.4434ZM16.1596 18.7411L14.0332 15.9783L17.1425 14.8725L18.618 18.7411H16.1596Z"/>
</mask>
<path d="M19.27 18.917L17.041 13.0733C17.0212 13.0215 16.9862 12.977 16.9406 12.9456C16.895 12.9142 16.8409 12.8973 16.7855 12.8973H12.5667C12.5925 12.8553 12.6182 12.8145 12.6439 12.7723C14.2672 10.0848 15.0841 7.73389 15.0724 5.78576C15.0726 4.44045 14.5384 3.15015 13.5873 2.19871C12.6362 1.24727 11.346 0.71263 10.0007 0.712402C8.65542 0.712174 7.36512 1.24638 6.41368 2.1975C5.46224 3.14861 4.9276 4.43873 4.92737 5.78404C4.91565 7.73389 5.73253 10.0851 7.35581 12.7723C7.38159 12.815 7.40722 12.8558 7.433 12.8973H3.21425C3.15886 12.8973 3.10479 12.9142 3.05917 12.9456C3.01356 12.977 2.97855 13.0215 2.95878 13.0733L0.73003 18.917C0.714149 18.9584 0.708588 19.0031 0.713827 19.0471C0.719066 19.0911 0.734948 19.1332 0.7601 19.1697C0.785252 19.2063 0.818918 19.2361 0.858189 19.2567C0.89746 19.2773 0.941155 19.288 0.985498 19.2879H19.0146C19.0589 19.288 19.1026 19.2773 19.1419 19.2567C19.1811 19.2361 19.2148 19.2063 19.24 19.1697C19.2651 19.1332 19.281 19.0911 19.2862 19.0471C19.2915 19.0031 19.2859 18.9584 19.27 18.917ZM5.4744 5.78451C5.47451 5.1902 5.59167 4.60172 5.8192 4.05269C6.04673 3.50365 6.38017 3.00481 6.80048 2.58464C7.2208 2.16447 7.71976 1.8312 8.26887 1.60386C8.81798 1.37652 9.4065 1.25957 10.0008 1.25967C10.5951 1.25977 11.1836 1.37693 11.7326 1.60446C12.2817 1.83199 12.7805 2.16543 13.2007 2.58574C13.6209 3.00606 13.9541 3.50502 14.1815 4.05413C14.4088 4.60325 14.5258 5.19176 14.5257 5.78607C14.5491 9.67014 10.9178 14.4606 10 15.6094C9.08222 14.4611 5.45081 9.67185 5.4744 5.78451ZM9.79175 16.2187C9.81742 16.2489 9.84934 16.2731 9.8853 16.2898C9.92126 16.3064 9.96041 16.315 10 16.315C10.0396 16.315 10.0788 16.3064 10.1148 16.2898C10.1507 16.2731 10.1826 16.2489 10.2083 16.2187C10.9343 15.3343 11.6074 14.4078 12.2239 13.4439H16.5969L16.9469 14.3619L8.40144 17.4011L5.3555 13.4434H7.77581C8.39248 14.4075 9.06563 15.3342 9.79175 16.2187ZM8.3919 17.9844H8.39347L13.4914 16.1719L15.4688 18.7411H6.26565L8.3919 17.9844ZM3.40284 13.4434H4.66534L7.8594 17.5937L4.63394 18.7409H1.38237L3.40284 13.4434ZM16.1596 18.7411L14.0332 15.9783L17.1425 14.8725L18.618 18.7411H16.1596Z" fill="#19110B"/>
<path d="M17.041 13.0733L17.9753 12.7169L17.9751 12.7163L17.041 13.0733ZM16.7855 12.8973L16.7859 11.8973H16.7855V12.8973ZM12.5667 12.8973L11.7143 12.3745L10.7802 13.8973H12.5667V12.8973ZM12.6439 12.7723L13.4972 13.2938L13.4999 13.2893L12.6439 12.7723ZM15.0724 5.78576L14.0724 5.78559L14.0724 5.79178L15.0724 5.78576ZM4.92737 5.78404L5.92737 5.79005L5.92737 5.78421L4.92737 5.78404ZM7.35581 12.7723L6.49986 13.2894L6.49998 13.2896L7.35581 12.7723ZM7.433 12.8973V13.8973H9.23006L8.28279 12.3702L7.433 12.8973ZM3.21425 12.8973V11.8973H3.21387L3.21425 12.8973ZM2.95878 13.0733L2.02465 12.7163L2.02443 12.7169L2.95878 13.0733ZM0.73003 18.917L1.6637 19.2751L1.66438 19.2734L0.73003 18.917ZM0.985498 19.2879V18.2879L0.983817 18.2879L0.985498 19.2879ZM19.0146 19.2879L19.0162 18.2879H19.0146V19.2879ZM14.5257 5.78607L13.5256 5.7859L13.5257 5.79211L14.5257 5.78607ZM10 15.6094L9.21889 16.2337L10.0002 17.2112L10.7813 16.2336L10 15.6094ZM10.2083 16.2187L10.97 16.8666L10.9757 16.86L10.9812 16.8532L10.2083 16.2187ZM12.2239 13.4439V12.4439H11.6765L11.3815 12.905L12.2239 13.4439ZM16.5969 13.4439L17.5313 13.0876L17.2858 12.4439H16.5969V13.4439ZM16.9469 14.3619L17.282 15.304L18.2457 14.9613L17.8813 14.0056L16.9469 14.3619ZM8.40144 17.4011L7.60897 18.011L8.05205 18.5867L8.73653 18.3433L8.40144 17.4011ZM5.3555 13.4434V12.4434H3.32399L4.56303 14.0533L5.3555 13.4434ZM7.77581 13.4434L8.61821 12.9046L8.32323 12.4434H7.77581V13.4434ZM8.3919 17.9844V16.9844H8.21926L8.05661 17.0422L8.3919 17.9844ZM8.39347 17.9844V18.9844H8.56595L8.72846 18.9266L8.39347 17.9844ZM13.4914 16.1719L14.2839 15.5619L13.8409 14.9863L13.1564 15.2296L13.4914 16.1719ZM15.4688 18.7411V19.7411H17.5003L16.2613 18.1312L15.4688 18.7411ZM6.26565 18.7411L5.93036 17.799L6.26565 19.7411V18.7411ZM3.40284 13.4434V12.4434H2.71398L2.46849 13.0871L3.40284 13.4434ZM4.66534 13.4434L5.45783 12.8335L5.1576 12.4434H4.66534V13.4434ZM7.8594 17.5937L8.19451 18.5359L9.49138 18.0747L8.65189 16.9838L7.8594 17.5937ZM4.63394 18.7409V19.7409H4.80647L4.96904 19.6831L4.63394 18.7409ZM1.38237 18.7409L0.448025 18.3846L-0.0692918 19.7409H1.38237V18.7409ZM16.1596 18.7411L15.3671 19.351L15.6673 19.7411H16.1596V18.7411ZM14.0332 15.9783L13.6981 15.0361L12.4011 15.4973L13.2407 16.5882L14.0332 15.9783ZM17.1425 14.8725L18.0769 14.5161L17.7285 13.6027L16.8075 13.9303L17.1425 14.8725ZM18.618 18.7411V19.7411H20.0697L19.5523 18.3847L18.618 18.7411ZM20.2044 18.5606L17.9753 12.7169L16.1066 13.4297L18.3357 19.2734L20.2044 18.5606ZM17.9751 12.7163C17.8831 12.4755 17.7201 12.2682 17.5078 12.122L16.3734 13.7692C16.2523 13.6858 16.1593 13.5676 16.1068 13.4302L17.9751 12.7163ZM17.5078 12.122C17.2954 11.9758 17.0437 11.8974 16.7859 11.8973L16.7851 13.8973C16.6381 13.8973 16.4945 13.8526 16.3734 13.7692L17.5078 12.122ZM16.7855 11.8973H12.5667V13.8973H16.7855V11.8973ZM13.4192 13.4202C13.4274 13.4068 13.481 13.3203 13.4972 13.2938L11.7907 12.2509C11.7553 12.3087 11.7577 12.3038 11.7143 12.3745L13.4192 13.4202ZM13.4999 13.2893C15.1659 10.5312 16.0857 7.99262 16.0724 5.77975L14.0724 5.79178C14.0825 7.47515 13.3686 9.63844 11.788 12.2553L13.4999 13.2893ZM16.0724 5.78593C16.0726 4.1754 15.4331 2.63073 14.2945 1.49172L12.8801 2.9057C13.6437 3.66957 14.0726 4.7055 14.0724 5.78559L16.0724 5.78593ZM14.2945 1.49172C13.1559 0.352716 11.6114 -0.287325 10.0009 -0.287598L10.0006 1.7124C11.0807 1.71259 12.1164 2.14183 12.8801 2.9057L14.2945 1.49172ZM10.0009 -0.287598C8.39038 -0.28787 6.8457 0.351647 5.7067 1.49027L7.12067 2.90472C7.88454 2.14111 8.92047 1.71222 10.0006 1.7124L10.0009 -0.287598ZM5.7067 1.49027C4.56769 2.62889 3.92765 4.17335 3.92737 5.78387L5.92737 5.78421C5.92756 4.70412 6.3568 3.66833 7.12067 2.90472L5.7067 1.49027ZM3.92739 5.77803C3.91408 7.99254 4.83382 10.5314 6.49986 13.2894L8.21176 12.2553C6.63124 9.63886 5.91723 7.47523 5.92736 5.79005L3.92739 5.77803ZM6.49998 13.2896C6.52975 13.3388 6.56136 13.3892 6.58321 13.4244L8.28279 12.3702C8.25308 12.3223 8.23343 12.2911 8.21164 12.2551L6.49998 13.2896ZM7.433 11.8973H3.21425V13.8973H7.433V11.8973ZM3.21387 11.8973C2.95605 11.8974 2.70432 11.9758 2.49198 12.122L3.62636 13.7692C3.50525 13.8526 3.36167 13.8973 3.21462 13.8973L3.21387 11.8973ZM2.49198 12.122C2.27964 12.2682 2.11668 12.4755 2.02465 12.7163L3.89291 13.4302C3.84042 13.5676 3.74747 13.6858 3.62636 13.7692L2.49198 12.122ZM2.02443 12.7169L-0.204322 18.5607L1.66438 19.2734L3.89313 13.4296L2.02443 12.7169ZM-0.203644 18.5589C-0.277669 18.7519 -0.30359 18.96 -0.279169 19.1652L1.70682 18.9289C1.72077 19.0461 1.70597 19.1649 1.6637 19.2751L-0.203644 18.5589ZM-0.279169 19.1652C-0.254747 19.3705 -0.180717 19.5667 -0.0634761 19.7369L1.58368 18.6025C1.65061 18.6997 1.69288 18.8118 1.70682 18.9289L-0.279169 19.1652ZM-0.0634761 19.7369C0.0537614 19.9072 0.210687 20.0463 0.393748 20.1423L1.32263 18.3711C1.42715 18.4259 1.51674 18.5053 1.58368 18.6025L-0.0634761 19.7369ZM0.393748 20.1423C0.576808 20.2383 0.780486 20.2883 0.987179 20.2879L0.983817 18.2879C1.10182 18.2878 1.21811 18.3163 1.32263 18.3711L0.393748 20.1423ZM0.985498 20.2879H19.0146V18.2879H0.985498V20.2879ZM19.0129 20.2879C19.2196 20.2883 19.4233 20.2383 19.6063 20.1423L18.6774 18.3711C18.7819 18.3163 18.8982 18.2878 19.0162 18.2879L19.0129 20.2879ZM19.6063 20.1423C19.7894 20.0463 19.9463 19.9072 20.0635 19.7369L18.4164 18.6025C18.4833 18.5053 18.5729 18.4259 18.6774 18.3711L19.6063 20.1423ZM20.0635 19.7369C20.1808 19.5667 20.2548 19.3705 20.2792 19.1652L18.2932 18.9289C18.3072 18.8118 18.3494 18.6997 18.4164 18.6025L20.0635 19.7369ZM20.2792 19.1652C20.3036 18.96 20.2777 18.7519 20.2037 18.5589L18.3364 19.2751C18.2941 19.1649 18.2793 19.0461 18.2932 18.9289L20.2792 19.1652ZM6.4744 5.78468C6.47448 5.32169 6.56576 4.86325 6.74301 4.43553L4.89538 3.66985C4.61758 4.3402 4.47453 5.0587 4.4744 5.78434L6.4744 5.78468ZM6.74301 4.43553C6.92026 4.00781 7.18003 3.6192 7.50747 3.29187L6.0935 1.87741C5.58031 2.39042 5.17319 2.99949 4.89538 3.66985L6.74301 4.43553ZM7.50747 3.29187C7.83491 2.96454 8.22361 2.70491 8.65139 2.52781L7.88635 0.679916C7.2159 0.957489 6.60669 1.3644 6.0935 1.87741L7.50747 3.29187ZM8.65139 2.52781C9.07917 2.3507 9.53765 2.25959 10.0006 2.25967L10.001 0.259668C9.27535 0.259543 8.55679 0.402343 7.88635 0.679916L8.65139 2.52781ZM10.0006 2.25967C10.4636 2.25975 10.9221 2.35102 11.3498 2.52827L12.1155 0.680646C11.4451 0.402842 10.7266 0.259793 10.001 0.259668L10.0006 2.25967ZM11.3498 2.52827C11.7775 2.70553 12.1661 2.96529 12.4935 3.29273L13.9079 1.87876C13.3949 1.36557 12.7858 0.95845 12.1155 0.680646L11.3498 2.52827ZM12.4935 3.29273C12.8208 3.62017 13.0804 4.00888 13.2575 4.43666L15.1054 3.67161C14.8278 3.00116 14.4209 2.39195 13.9079 1.87876L12.4935 3.29273ZM13.2575 4.43666C13.4346 4.86444 13.5257 5.32291 13.5257 5.7859L15.5257 5.78625C15.5258 5.06061 15.383 4.34206 15.1054 3.67161L13.2575 4.43666ZM13.5257 5.79211C13.5358 7.46579 12.742 9.44558 11.7426 11.2361C10.7605 12.9957 9.66031 14.4325 9.21877 14.9852L10.7813 16.2336C11.2576 15.6375 12.4319 14.1046 13.489 12.2108C14.5288 10.3479 15.539 7.99042 15.5256 5.78004L13.5257 5.79211ZM10.7812 14.985C10.3397 14.4326 9.23952 12.9963 8.25738 11.2367C7.25805 9.44632 6.46422 7.46598 6.47439 5.79058L4.47442 5.77844C4.461 7.99039 5.47107 10.3483 6.511 12.2115C7.56811 14.1054 8.74258 15.6378 9.21889 16.2337L10.7812 14.985ZM9.03003 16.8666C9.14959 17.0072 9.29825 17.1201 9.46573 17.1975L10.3049 15.382C10.4004 15.4262 10.4852 15.4906 10.5535 15.5708L9.03003 16.8666ZM9.46573 17.1975C9.63321 17.2749 9.81551 17.315 10 17.315V15.315C10.1053 15.315 10.2093 15.3379 10.3049 15.382L9.46573 17.1975ZM10 17.315C10.1845 17.315 10.3669 17.2749 10.5343 17.1975L9.69518 15.382C9.79074 15.3379 9.89475 15.315 10 15.315V17.315ZM10.5343 17.1975C10.7018 17.1201 10.8505 17.0072 10.97 16.8666L9.4466 15.5708C9.51481 15.4906 9.59963 15.4262 9.69518 15.382L10.5343 17.1975ZM10.9812 16.8532C11.7323 15.9383 12.4285 14.9798 13.0663 13.9828L11.3815 12.905C10.7862 13.8357 10.1364 14.7303 9.43538 15.5842L10.9812 16.8532ZM12.2239 14.4439H16.5969V12.4439H12.2239V14.4439ZM15.6625 13.8001L16.0125 14.7181L17.8813 14.0056L17.5313 13.0876L15.6625 13.8001ZM16.6118 13.4197L8.06635 16.4589L8.73653 18.3433L17.282 15.304L16.6118 13.4197ZM9.19391 16.7912L6.14797 12.8335L4.56303 14.0533L7.60897 18.011L9.19391 16.7912ZM5.3555 14.4434H7.77581V12.4434H5.3555V14.4434ZM6.93341 13.9823C7.57133 14.9795 8.26768 15.9382 9.01882 16.8532L10.5647 15.5842C9.86358 14.7302 9.21362 13.8354 8.61821 12.9046L6.93341 13.9823ZM8.3919 18.9844H8.39347V16.9844H8.3919V18.9844ZM8.72846 18.9266L13.8264 17.1141L13.1564 15.2296L8.05848 17.0421L8.72846 18.9266ZM12.699 16.7818L14.6763 19.351L16.2613 18.1312L14.2839 15.5619L12.699 16.7818ZM15.4688 17.7411H6.26565V19.7411H15.4688V17.7411ZM6.60095 19.6832L8.7272 18.9265L8.05661 17.0422L5.93036 17.799L6.60095 19.6832ZM3.40284 14.4434H4.66534V12.4434H3.40284V14.4434ZM3.87286 14.0533L7.06692 18.2036L8.65189 16.9838L5.45783 12.8335L3.87286 14.0533ZM7.5243 16.6515L4.29883 17.7987L4.96904 19.6831L8.19451 18.5359L7.5243 16.6515ZM4.63394 17.7409H1.38237V19.7409H4.63394V17.7409ZM2.31672 19.0973L4.33719 13.7998L2.46849 13.0871L0.448025 18.3846L2.31672 19.0973ZM16.952 18.1312L14.8256 15.3683L13.2407 16.5882L15.3671 19.351L16.952 18.1312ZM14.3682 16.9205L17.4776 15.8147L16.8075 13.9303L13.6981 15.0361L14.3682 16.9205ZM16.2082 15.2288L17.6836 19.0974L19.5523 18.3847L18.0769 14.5161L16.2082 15.2288ZM18.618 17.7411H16.1596V19.7411H18.618V17.7411Z" fill="black" mask="url(#path-3-inside-2)"/>
</svg>
