<svg width="20" height="20" viewBox="0 0 20 20" fill="none" xmlns="http://www.w3.org/2000/svg">
<path fill-rule="evenodd" clip-rule="evenodd" d="M11.1193 5.4529L12.3068 6.62235L7.04165 11.9688C6.77745 12.2385 6.77745 12.6724 7.04165 12.9421C7.29236 13.198 7.71116 13.1968 7.95919 12.9407L13.752 7.05602C14.5977 6.19299 14.5977 4.80698 13.752 3.94395C12.9452 3.12054 11.5175 3.13886 10.7267 3.94552L4.40399 10.364C2.97648 11.8202 2.97648 14.1585 4.40399 15.6147C5.79016 17.0287 8.1714 17.0057 9.53593 15.6134L16.9101 8.12399L18.0977 9.29334L10.7249 16.7813C8.7133 18.8339 5.2586 18.8673 3.21381 16.7814C1.15099 14.6771 1.15099 11.3015 3.21523 9.19581L9.53798 2.77735C10.9742 1.31229 13.4753 1.2802 14.9424 2.77747C16.4231 4.28852 16.4231 6.71145 14.9411 8.22386L9.15175 14.105C8.25619 15.0299 6.75799 15.0341 5.85115 14.1085C4.95207 13.1908 4.95207 11.7201 5.85265 10.8009L11.1193 5.4529Z" fill="#19110B"/>
</svg>
