<svg width="24" height="24" viewBox="0 0 24 24" fill="none" xmlns="http://www.w3.org/2000/svg">
<g clip-path="url(#clip0)">
<path d="M23.7068 22.2938L16.8818 15.4688C18.2038 13.8359 18.9998 11.7609 18.9998 9.5009C18.9998 4.26295 14.7378 0.000976562 9.49988 0.000976562C4.26193 0.000976562 0 4.2629 0 9.50085C0 14.7388 4.26197 19.0008 9.49992 19.0008C11.7599 19.0008 13.8349 18.2048 15.4678 16.8828L22.2928 23.7077C22.4878 23.9027 22.7438 24.0007 22.9998 24.0007C23.2558 24.0007 23.5118 23.9027 23.7068 23.7077C24.0978 23.3167 24.0978 22.6847 23.7068 22.2938ZM9.49992 17.0008C5.36395 17.0008 2 13.6368 2 9.50085C2 5.36488 5.36395 2.00093 9.49992 2.00093C13.6359 2.00093 16.9998 5.36488 16.9998 9.50085C16.9998 13.6368 13.6359 17.0008 9.49992 17.0008Z" fill="black"/>
</g>
<defs>
<clipPath id="clip0">
<rect width="24" height="24" fill="white"/>
</clipPath>
</defs>
</svg>
