<svg width="48" height="48" viewBox="0 0 48 48" fill="none" xmlns="http://www.w3.org/2000/svg">
<path fill-rule="evenodd" clip-rule="evenodd" d="M25 23C23.1362 23 21.5701 21.7252 21.126 20H14V18H21.126C21.5701 16.2748 23.1362 15 25 15C27.2091 15 29 16.7909 29 19C29 21.2091 27.2091 23 25 23ZM31 18H34V20H31V18ZM20 33C18.1362 33 16.5701 31.7252 16.126 30H14V28H16.126C16.5701 26.2748 18.1362 25 20 25C22.2091 25 24 26.7909 24 29C24 31.2091 22.2091 33 20 33ZM26 30H34V28H26V30ZM22 29C22 30.1046 21.1046 31 20 31C18.8954 31 18 30.1046 18 29C18 27.8954 18.8954 27 20 27C21.1046 27 22 27.8954 22 29ZM27 19C27 20.1046 26.1046 21 25 21C23.8954 21 23 20.1046 23 19C23 17.8954 23.8954 17 25 17C26.1046 17 27 17.8954 27 19Z" fill="#767676"/>
</svg>
