<svg width="14" height="14" viewBox="0 0 14 14" fill="none" xmlns="http://www.w3.org/2000/svg">
<path fill-rule="evenodd" clip-rule="evenodd" d="M3.82286 13.7051C3.08924 14.0908 2.2318 13.4678 2.37191 12.6509L2.88982 9.63133C2.94545 9.30694 2.83791 8.97593 2.60222 8.7462L0.408348 6.6077C-0.185169 6.02917 0.14234 5.02119 0.96256 4.90201L3.99442 4.46145C4.32013 4.41412 4.60169 4.20956 4.74736 3.91441L6.10324 1.16708C6.47006 0.423838 7.5299 0.423838 7.89672 1.16708L9.2526 3.91441C9.39826 4.20956 9.67983 4.41412 10.0055 4.46145L13.0374 4.90201C13.8576 5.02119 14.1851 6.02916 13.5916 6.6077L11.3977 8.7462C11.1621 8.97593 11.0545 9.30694 11.1101 9.63133L11.628 12.6509C11.7682 13.4678 10.9107 14.0908 10.1771 13.7051L7.46532 12.2794C7.174 12.1263 6.82596 12.1263 6.53464 12.2794L3.82286 13.7051Z" fill="#B6C5D1"/>
</svg>
