<svg width="14" height="14" viewBox="0 0 14 14" fill="none" xmlns="http://www.w3.org/2000/svg">
<path fill-rule="evenodd" clip-rule="evenodd" d="M3.82299 13.7051C3.08936 14.0908 2.23192 13.4678 2.37204 12.6509L2.88994 9.63133C2.94558 9.30694 2.83803 8.97593 2.60234 8.7462L0.40847 6.6077C-0.185047 6.02917 0.142462 5.02119 0.962682 4.90201L3.99454 4.46145C4.32025 4.41412 4.60182 4.20956 4.74748 3.91441L6.10336 1.16708C6.47018 0.423838 7.53002 0.423838 7.89684 1.16708L9.25272 3.91441C9.39839 4.20956 9.67995 4.41412 10.0057 4.46145L13.0375 4.90201C13.8577 5.02119 14.1853 6.02916 13.5917 6.6077L11.3979 8.7462C11.1622 8.97593 11.0546 9.30694 11.1103 9.63133L11.6282 12.6509C11.7683 13.4678 10.9108 14.0908 10.1772 13.7051L7.46544 12.2794C7.17412 12.1263 6.82608 12.1263 6.53476 12.2794L3.82299 13.7051Z" fill="#767676"/>
</svg>
